<svg width="56" height="56" viewBox="0 0 56 56" fill="none" xmlns="http://www.w3.org/2000/svg">
<path d="M52.9124 23.2815H2.1165C1.55517 23.2815 1.01683 23.5045 0.619907 23.9014C0.222987 24.2983 0 24.8366 0 25.398C0.00929936 30.4313 1.39449 35.3663 4.00576 39.6693C6.61703 43.9724 10.355 47.4796 14.8155 49.8118V50.7959C14.8155 51.9186 15.2614 52.9953 16.0553 53.7891C16.8491 54.5829 17.9258 55.0289 19.0485 55.0289H35.9804C37.1031 55.0289 38.1798 54.5829 38.9736 53.7891C39.7674 52.9953 40.2134 51.9186 40.2134 50.7959V49.8118C44.6739 47.4796 48.4118 43.9724 51.0231 39.6693C53.6344 35.3663 55.0196 30.4313 55.0289 25.398C55.0289 24.8366 54.8059 24.2983 54.409 23.9014C54.0121 23.5045 53.4737 23.2815 52.9124 23.2815ZM37.2133 46.5629C36.8453 46.732 36.5336 47.0031 36.3151 47.344C36.0965 47.6849 35.9804 48.0814 35.9804 48.4863V50.7959H19.0485V48.4916C19.0495 48.0857 18.9338 47.6882 18.7153 47.3462C18.4967 47.0043 18.1844 46.7324 17.8156 46.5629C14.0935 44.8502 10.8875 42.1885 8.51918 38.845C6.1509 35.5016 4.70374 31.594 4.32294 27.5145H50.698C50.318 31.5932 48.872 35.5002 46.5052 38.8435C44.1383 42.1869 40.9339 44.8491 37.2133 46.5629ZM15.2837 8.20145C16.6992 6.43947 17.0484 5.24894 16.9029 4.72511C16.7917 4.33091 16.2653 4.1272 16.26 4.1272C15.7809 3.96975 15.3738 3.64641 15.1119 3.21542C14.8501 2.78443 14.7507 2.27411 14.8318 1.77637C14.9128 1.27862 15.1689 0.826176 15.554 0.500509C15.939 0.174842 16.4277 -0.00263943 16.932 2.96719e-05C17.1454 0.000279579 17.3576 0.0323807 17.5616 0.0952721C17.8262 0.177286 20.1834 0.976263 20.9454 3.47108C21.5962 5.6061 20.7999 8.08769 18.5802 10.8497C17.1648 12.6117 16.8156 13.8022 16.9611 14.3261C17.0722 14.7203 17.5881 14.9187 17.5934 14.9213C18.0716 15.0785 18.4781 15.401 18.74 15.8308C19.0019 16.2607 19.102 16.7699 19.0223 17.2669C18.9427 17.7639 18.6885 18.2163 18.3054 18.5428C17.9223 18.8693 17.4353 19.0486 16.932 19.0485C16.7185 19.0482 16.5063 19.0161 16.3023 18.9532C16.0377 18.8712 13.6805 18.0723 12.9186 15.5774C12.2677 13.4424 13.0641 10.9608 15.2837 8.20145ZM25.8662 8.20145C27.2816 6.43947 27.6308 5.24894 27.4853 4.72511C27.3742 4.33091 26.8477 4.1272 26.8425 4.1272C26.3634 3.96975 25.9562 3.64641 25.6944 3.21542C25.4326 2.78443 25.3332 2.27411 25.4143 1.77637C25.4953 1.27862 25.7514 0.826176 26.1364 0.500509C26.5215 0.174842 27.0102 -0.00263943 27.5144 2.96719e-05C27.7279 0.000279579 27.9401 0.0323807 28.1441 0.0952721C28.4087 0.177286 30.7659 0.976263 31.5278 3.47108C32.1787 5.6061 31.3823 8.08769 29.1627 10.8497C27.7473 12.6117 27.398 13.8022 27.5435 14.3261C27.6547 14.7203 28.1706 14.9187 28.1758 14.9213C28.6541 15.0785 29.0606 15.401 29.3225 15.8308C29.5844 16.2607 29.6845 16.7699 29.6048 17.2669C29.5252 17.7639 29.271 18.2163 28.8879 18.5428C28.5047 18.8693 28.0178 19.0486 27.5144 19.0485C27.301 19.0482 27.0888 19.0161 26.8848 18.9532C26.6202 18.8712 24.263 18.0723 23.501 15.5774C22.8502 13.4424 23.6465 10.9608 25.8662 8.20145ZM36.4487 8.20145C37.8641 6.43947 38.2133 5.24894 38.0678 4.72511C37.9567 4.33091 37.4302 4.1272 37.4249 4.1272C36.9458 3.96975 36.5387 3.64641 36.2769 3.21542C36.015 2.78443 35.9157 2.27411 35.9967 1.77637C36.0778 1.27862 36.3339 0.826176 36.7189 0.500509C37.104 0.174842 37.5926 -0.00263943 38.0969 2.96719e-05C38.3104 0.000279579 38.5226 0.0323807 38.7266 0.0952721C38.9911 0.177286 41.3484 0.976263 42.1103 3.47108C42.7611 5.6061 41.9648 8.08769 39.7451 10.8497C38.3297 12.6117 37.9805 13.8022 38.126 14.3261C38.2371 14.7203 38.753 14.9187 38.7583 14.9213C39.2365 15.0785 39.6431 15.401 39.9049 15.8308C40.1668 16.2607 40.2669 16.7699 40.1873 17.2669C40.1076 17.7639 39.8534 18.2163 39.4703 18.5428C39.0872 18.8693 38.6003 19.0486 38.0969 19.0485C37.8835 19.0482 37.6712 19.0161 37.4673 18.9532C37.2027 18.8712 34.8455 18.0723 34.0835 15.5774C33.4327 13.4424 34.229 10.9608 36.4487 8.20145Z" fill="#919191"/>
</svg>
