<svg width="55" height="59" viewBox="0 0 55 59" fill="none" xmlns="http://www.w3.org/2000/svg">
<path d="M42.845 40.0277V44.2529M38.5028 9.04216C37.8324 5.04542 34.3564 2 30.1691 2H24.5354C20.3482 2 16.8722 5.04542 16.2017 9.04216M2.00049 35.8024C18.1405 42.9758 36.564 42.9758 52.704 35.8024M21.7185 32.9855H32.986M2.00049 27.1016C2.00049 26.8397 2.00049 26.7087 2.00209 26.5921C2.10894 18.8454 7.46912 12.1633 15.0081 10.3786C15.1215 10.3517 15.2494 10.3233 15.5052 10.2665C15.7408 10.2141 15.8586 10.1879 15.9752 10.1626C23.4723 8.5316 31.2322 8.5316 38.7293 10.1626C38.8459 10.1879 38.9636 10.2141 39.1991 10.2665C39.4552 10.3233 39.5831 10.3517 39.6963 10.3786C47.2354 12.1633 52.5956 18.8454 52.7023 26.5921C52.704 26.7087 52.704 26.8397 52.704 27.1016V42.493C52.704 48.4588 48.5604 53.6244 42.7366 54.9187C32.604 57.1702 22.1005 57.1702 11.968 54.9187C6.14412 53.6244 2.00049 48.4588 2.00049 42.493V27.1016Z" stroke="#919191" stroke-width="4" stroke-linecap="round"/>
</svg>
