<svg width="56" height="54" viewBox="0 0 56 54" fill="none" xmlns="http://www.w3.org/2000/svg">
<path d="M55.1084 9.6123C54.9869 9.10742 54.7663 8.63169 54.4595 8.21271C54.1526 7.79374 53.7657 7.43987 53.321 7.17162C45.5655 2.48009 36.6742 0 27.61 0C18.5459 0 9.65454 2.48009 1.89904 7.17162C1.45566 7.44052 1.06966 7.7942 0.763103 8.21243C0.45655 8.63066 0.235468 9.10523 0.112505 9.60899C-0.0104571 10.1127 -0.0328865 10.6358 0.0464997 11.1482C0.125886 11.6607 0.30553 12.1524 0.575155 12.5954L24.2424 51.3677C24.594 51.9473 25.089 52.4266 25.6798 52.7592C26.2705 53.0918 26.937 53.2665 27.615 53.2665C28.2929 53.2665 28.9594 53.0918 29.5501 52.7592C30.1409 52.4266 30.6359 51.9473 30.9875 51.3677L54.6548 12.5954C54.9247 12.1532 55.1039 11.6617 55.1817 11.1495C55.2596 10.6373 55.2347 10.1147 55.1084 9.6123ZM11.7308 23.2949C12.3716 22.691 13.1392 22.2377 13.9775 21.9681C14.8158 21.6986 15.7037 21.6195 16.5764 21.7367C17.4491 21.854 18.2847 22.1645 19.0222 22.6457C19.7596 23.1269 20.3804 23.7667 20.8391 24.5183C21.2979 25.2699 21.5831 26.1144 21.674 26.9903C21.7649 27.8662 21.6591 28.7513 21.3644 29.5811C21.0697 30.4109 20.5935 31.1644 19.9705 31.7868C19.3476 32.4091 18.5936 32.8846 17.7635 33.1784L11.7308 23.2949ZM33.406 39.8003C32.4184 38.869 31.781 37.6264 31.6008 36.2809C31.4206 34.9354 31.7085 33.5689 32.4163 32.4105C33.1241 31.2521 34.2087 30.3724 35.4882 29.9188C36.7677 29.4652 38.1643 29.4654 39.4436 29.9193L33.406 39.8003ZM41.5244 26.5048C39.3322 25.5098 36.8518 25.351 34.5507 26.0585C32.2496 26.766 30.2867 28.2907 29.0322 30.3454C27.7776 32.4001 27.318 34.8427 27.7399 37.2128C28.1619 39.583 29.4362 41.7169 31.3228 43.2124L27.61 49.3042L19.8442 36.5905C21.1192 36.0159 22.2574 35.1768 23.1832 34.1288C24.1091 33.0807 24.8015 31.8478 25.2144 30.5117C25.6274 29.1756 25.7514 27.767 25.5783 26.3793C25.4053 24.9916 24.939 23.6566 24.2106 22.4629C23.4821 21.2692 22.5081 20.2441 21.3532 19.4556C20.1982 18.6671 18.8888 18.1332 17.5118 17.8894C16.1348 17.6457 14.7216 17.6976 13.3662 18.0417C12.0108 18.3858 10.744 19.0143 9.65006 19.8854L8.08457 17.3189C13.9645 13.7297 20.72 11.8308 27.6088 11.8308C34.4976 11.8308 41.2531 13.7297 47.133 17.3189L41.5244 26.5048ZM49.1916 13.9488C42.6911 9.98417 35.2241 7.88676 27.61 7.88676C19.9959 7.88676 12.5289 9.98417 6.02848 13.9488L3.9428 10.5417C11.083 6.22644 19.2671 3.94544 27.61 3.94544C35.9529 3.94544 44.1371 6.22644 51.2773 10.5417L49.1916 13.9488Z" fill="#919191"/>
</svg>
