<svg width="56" height="56" viewBox="0 0 56 56" fill="none" xmlns="http://www.w3.org/2000/svg">
<path d="M16.9325 9.74304C17.991 7.78635 19.571 6.16125 21.4972 5.04814C23.4233 3.93503 25.6202 3.37745 27.8441 3.43731C30.0679 3.49716 32.2316 4.1721 34.0951 5.38721C35.9586 6.60231 37.4489 8.31005 38.4006 10.3208C35.8954 10.3773 33.4609 11.1623 31.3946 12.5799C29.3283 13.9975 27.7197 15.9864 26.7655 18.3034C25.8843 16.8376 24.8301 15.4831 23.6254 14.2692C21.6879 12.3665 19.4199 10.8327 16.9325 9.74304ZM51.5628 24.0746C51.5811 23.7903 51.5903 23.5037 51.5903 23.2148C51.5914 20.4202 50.6849 17.7008 49.007 15.466C47.3292 13.2312 44.9709 11.6017 42.287 10.823C41.36 7.88618 39.5783 5.29253 37.1697 3.37354C34.761 1.45455 31.8348 0.297419 28.7652 0.0500435C25.6955 -0.197332 22.6218 0.47629 19.9369 1.98481C17.2521 3.49332 15.078 5.7682 13.6927 8.51865C12.3247 8.09274 10.9313 7.75273 9.52085 7.50062C7.13522 7.07204 4.71523 6.86366 2.29145 6.87811L1.65862 6.89875H1.64487C1.22417 6.92331 0.827132 7.10151 0.529145 7.39949C0.231159 7.69748 0.0529653 8.09451 0.028397 8.51521V8.51865L0.000883036 9.16524C-0.0153358 11.5924 0.191896 14.0158 0.619956 16.405C1.04299 18.7506 1.75836 21.4401 2.97587 24.0746H1.72053C1.26445 24.0746 0.827053 24.2558 0.504556 24.5782C0.18206 24.9007 0.000883036 25.3381 0.000883036 25.7942V27.5139C0.000883036 34.8111 2.89971 41.8095 8.05965 46.9695C13.2196 52.1294 20.218 55.0282 27.5152 55.0282C34.8125 55.0282 41.8109 52.1294 46.9708 46.9695C52.1308 41.8095 55.0296 34.8111 55.0296 27.5139V25.7942C55.0296 25.3381 54.8484 24.9007 54.5259 24.5782C54.2034 24.2558 53.766 24.0746 53.3099 24.0746H51.5628ZM6.82444 24.0746C5.33179 21.385 4.47884 18.4376 4.00422 15.7928C3.67984 13.9867 3.49358 12.1586 3.44706 10.3243L3.83913 10.338C5.11855 10.3827 6.90011 10.5203 8.90866 10.8849C12.967 11.6175 17.7339 13.2408 21.1938 16.7007C23.3124 18.8193 24.7466 21.4332 25.7096 24.0746H19.6324L13.2559 17.6981C13.096 17.5385 12.9063 17.4119 12.6975 17.3255C12.4886 17.2392 12.2649 17.1949 12.0389 17.195C11.813 17.1952 11.5893 17.2399 11.3806 17.3265C11.1719 17.4131 10.9823 17.54 10.8226 17.6998C10.663 17.8597 10.5364 18.0495 10.45 18.2583C10.3637 18.4671 10.3194 18.6909 10.3195 18.9169C10.3197 19.1428 10.3644 19.3665 10.451 19.5752C10.5376 19.7839 10.6645 19.9735 10.8243 20.1331L14.7692 24.0746H6.82444ZM29.3449 24.0746L29.2521 23.796C29.1772 22.4985 29.3706 21.1994 29.8202 19.98C30.2697 18.7605 30.9657 17.6468 31.8648 16.7083C32.764 15.7698 33.8468 15.0267 35.0459 14.5253C36.245 14.024 37.5346 13.7751 38.8341 13.7943C40.1336 13.8135 41.4153 14.1003 42.599 14.6369C43.7828 15.1734 44.8433 15.9482 45.7143 16.9128C46.5853 17.8775 47.2481 19.0113 47.6615 20.2435C48.0748 21.4757 48.2297 22.7798 48.1166 24.0746H29.3449ZM3.44018 27.5139H51.5903C51.5903 29.9042 51.2429 32.2119 50.5929 34.3925H4.43757C3.77414 32.1599 3.43817 29.8429 3.44018 27.5139ZM27.5152 51.5889C22.9585 51.5899 18.4951 50.2976 14.6437 47.8623C10.7923 45.4271 7.71114 41.9488 5.75826 37.8318H49.2722C47.3193 41.9488 44.2381 45.4271 40.3868 47.8623C36.5354 50.2976 32.072 51.5899 27.5152 51.5889Z" fill="#919191"/>
</svg>
